<svg style="" data-layer-last-child="true" preserveAspectRatio="none" xmlns="http://www.w3.org/2000/svg" xmlns:xlink="http://www.w3.org/1999/xlink" version="1.1" id="Layer_1" x="0px" y="0px" viewBox="0 0 300 300" xml:space="preserve"><style type="text/css">
	.st0{fill-rule:evenodd;clip-rule:evenodd;}
</style><path d="M150,228.2c43.1,0,78.2-35.1,78.2-78.2S193.1,71.8,150,71.8S71.8,106.9,71.8,150S106.9,228.2,150,228.2z M115.1,141.8h49.7  l-11-11c-3.3-3.3-3.3-8.4,0-11.7c3.3-3.3,8.4-3.3,11.7,0l25,25.2c1.7,1.5,2.5,3.6,2.5,5.8s-1,4.3-2.5,5.8l-25.4,25.4  c-1.5,1.7-3.6,2.5-5.8,2.5c-2,0-4.1-0.8-5.8-2.5c-3.3-3.3-3.3-8.4,0-11.7l11.2-11.2h-49.7c-4.6,0-8.2-3.6-8.2-8.2  C106.9,145.4,110.4,141.8,115.1,141.8z"/></svg>