<svg data-layer-last-child="true" id="Layer_1" preserveAspectRatio="none" style="enable-background:new 0 0 300 300;" version="1.1" viewBox="0 0 300 300" x="0px" xml:space="preserve" xmlns="http://www.w3.org/2000/svg" xmlns:xlink="http://www.w3.org/1999/xlink" y="0px"><path d="M188.2,73.9c-8.1-8.1-20.6-8.1-28.7,0s-8.1,20.6,0,28.7l27.1,27.1h-122c-11.3,0-20.2,8.9-20.2,20.2  c0,11.3,8.9,20.2,20.2,20.2h122l-27.4,27.4c-8.1,8.1-8.1,20.6,0,28.7c4,4,9.3,6.1,14.1,6.1c5.2,0,10.5-2,14.1-6.1l62.2-62.2  c3.7-3.7,6.1-8.9,6.1-14.1s-2-10.5-6.1-14.1L188.2,73.9z"/></svg>