<svg xmlns="http://www.w3.org/2000/svg" xmlns:xlink="http://www.w3.org/1999/xlink" version="1.1" id="Layer_1" x="0px" y="0px" viewBox="0 0 1080 1423.6" style="enable-background:new 0 0 1080 1423.6;" xml:space="preserve"><g><polygon points="624.1,1452.9 -60.2,592.4 -60.2,588.8 626.9,1452.9  "/><polygon points="566.9,1452.9 -60.2,664.2 -60.2,660.7 569.8,1452.9  "/><polygon points="509.8,1452.9 -60.2,736.1 -60.2,732.5 512.6,1452.9  "/><polygon points="452.7,1452.9 -60.2,807.9 -60.2,804.4 455.5,1452.9  "/><polygon points="395.5,1452.9 -60.2,879.8 -60.2,876.2 398.4,1452.9  "/><polygon points="338.4,1452.9 -60.2,951.6 -60.2,948.1 341.2,1452.9  "/><polygon points="281.2,1452.9 -60.2,1023.5 -60.2,1019.9 284.1,1452.9  "/><polygon points="224.1,1452.9 -60.2,1095.3 -60.2,1091.8 226.9,1452.9  "/><polygon points="167,1452.9 -60.2,1167.2 -60.2,1163.6 169.8,1452.9  "/><polygon points="109.8,1452.9 -60.2,1239 -60.2,1235.5 112.7,1452.9  "/><polygon points="52.7,1452.9 -60.2,1310.9 -60.2,1307.3 55.5,1452.9  "/><polygon points="-4.5,1452.9 -60.2,1382.7 -60.2,1379.2 -1.6,1452.9  "/><polygon points="-60.2,1452.9 -60.2,1451 -58.8,1452.9  "/><polygon points="681.2,1452.9 -60.2,520.5 -60.2,517 684.1,1452.9  "/><polygon points="738.4,1452.9 -60.2,448.7 -60.2,445.1 741.2,1452.9  "/><polygon points="795.5,1452.9 -60.2,376.8 -60.2,373.3 798.3,1452.9  "/><polygon points="852.6,1452.9 -60.2,305 -60.2,301.4 855.5,1452.9  "/><polygon points="909.8,1452.9 -60.2,233.1 -60.2,229.6 912.6,1452.9  "/><polygon points="966.9,1452.9 -60.2,161.3 -60.2,157.7 969.8,1452.9  "/><polygon points="1024.1,1452.9 -60.2,89.4 -60.2,85.9 1026.9,1452.9  "/><polygon points="1081.2,1452.9 -60.2,17.6 -60.2,14 1084,1452.9  "/><polygon points="-60.2,-56.1 -58.8,-56.1 1139.8,1451.1 1139.8,1452.9 1138.3,1452.9 -60.2,-54.3  "/><polygon points="-1.7,-56.1 1139.8,1379.3 1139.8,1382.8 -4.5,-56.1  "/><polygon points="55.5,-56.1 1139.8,1307.4 1139.8,1311 52.6,-56.1  "/><polygon points="112.6,-56.1 1139.8,1235.6 1139.8,1239.1 109.8,-56.1  "/><polygon points="169.7,-56.1 1139.8,1163.7 1139.8,1167.3 166.9,-56.1  "/><polygon points="226.9,-56.1 1139.8,1091.9 1139.8,1095.4 224,-56.1  "/><polygon points="284,-56.1 1139.8,1020 1139.8,1023.6 281.2,-56.1  "/><polygon points="341.2,-56.1 1139.8,948.2 1139.8,951.7 338.3,-56.1  "/><polygon points="398.3,-56.1 1139.8,876.3 1139.8,879.9 395.5,-56.1  "/><polygon points="455.4,-56.1 1139.8,804.5 1139.8,808 452.6,-56.1  "/><polygon points="512.6,-56.1 1139.8,732.6 1139.8,736.2 509.7,-56.1  "/><polygon points="569.7,-56.1 1139.8,660.8 1139.8,664.3 566.9,-56.1  "/><polygon points="626.8,-56.1 1139.8,588.9 1139.8,592.5 624,-56.1  "/><polygon points="684,-56.1 1139.8,517.1 1139.8,520.6 681.2,-56.1  "/><polygon points="741.1,-56.1 1139.8,445.2 1139.8,448.8 738.3,-56.1  "/><polygon points="798.3,-56.1 1139.8,373.3 1139.8,376.9 795.4,-56.1  "/><polygon points="855.4,-56.1 1139.8,301.5 1139.8,305.1 852.6,-56.1  "/><polygon points="912.6,-56.1 1139.8,229.6 1139.8,233.2 909.7,-56.1  "/><polygon points="969.7,-56.1 1139.8,157.8 1139.8,161.4 966.9,-56.1  "/><polygon points="1026.8,-56.1 1139.8,85.9 1139.8,89.5 1024,-56.1  "/><polygon points="1084,-56.1 1139.8,14.1 1139.8,17.6 1081.1,-56.1  "/><polygon points="1139.8,-56.1 1139.8,-54.2 1138.3,-56.1  "/><polygon points="595.1,1452.9 -60.2,628.8 -60.2,625.3 597.9,1452.9  "/><polygon points="537.9,1452.9 -60.2,700.7 -60.2,697.1 540.8,1452.9  "/><polygon points="480.8,1452.9 -60.2,772.6 -60.2,769 483.6,1452.9  "/><polygon points="423.7,1452.9 -60.2,844.4 -60.2,840.8 426.5,1452.9  "/><polygon points="366.5,1452.9 -60.2,916.3 -60.2,912.7 369.4,1452.9  "/><polygon points="309.4,1452.9 -60.2,988.1 -60.2,984.5 312.2,1452.9  "/><polygon points="252.2,1452.9 -60.2,1060 -60.2,1056.4 255.1,1452.9  "/><polygon points="195.1,1452.9 -60.2,1131.8 -60.2,1128.3 197.9,1452.9  "/><polygon points="138,1452.9 -60.2,1203.7 -60.2,1200.1 140.8,1452.9  "/><polygon points="80.8,1452.9 -60.2,1275.5 -60.2,1272 83.7,1452.9  "/><polygon points="23.7,1452.9 -60.2,1347.4 -60.2,1343.8 26.5,1452.9  "/><polygon points="-33.5,1452.9 -60.2,1419.2 -60.2,1415.7 -30.6,1452.9  "/><polygon points="652.2,1452.9 -60.2,557 -60.2,553.4 655.1,1452.9  "/><polygon points="709.4,1452.9 -60.2,485.1 -60.2,481.6 712.2,1452.9  "/><polygon points="766.5,1452.9 -60.2,413.3 -60.2,409.7 769.3,1452.9  "/><polygon points="823.6,1452.9 -60.2,341.4 -60.2,337.9 826.5,1452.9  "/><polygon points="880.8,1452.9 -60.2,269.6 -60.2,266 883.6,1452.9  "/><polygon points="937.9,1452.9 -60.2,197.7 -60.2,194.2 940.8,1452.9  "/><polygon points="995.1,1452.9 -60.2,125.9 -60.2,122.3 997.9,1452.9  "/><polygon points="1052.2,1452.9 -60.2,54 -60.2,50.5 1055,1452.9  "/><polygon points="1109.3,1452.9 -60.2,-17.8 -60.2,-21.4 1112.2,1452.9  "/><polygon points="-30.7,-56.1 1139.8,1415.7 1139.8,1419.3 -33.5,-56.1  "/><polygon points="26.5,-56.1 1139.8,1343.9 1139.8,1347.4 23.6,-56.1  "/><polygon points="83.6,-56.1 1139.8,1272 1139.8,1275.6 80.8,-56.1  "/><polygon points="140.7,-56.1 1139.8,1200.2 1139.8,1203.7 137.9,-56.1  "/><polygon points="197.9,-56.1 1139.8,1128.3 1139.8,1131.9 195,-56.1  "/><polygon points="255,-56.1 1139.8,1056.5 1139.8,1060 252.2,-56.1  "/><polygon points="312.2,-56.1 1139.8,984.6 1139.8,988.2 309.3,-56.1  "/><polygon points="369.3,-56.1 1139.8,912.8 1139.8,916.3 366.5,-56.1  "/><polygon points="426.4,-56.1 1139.8,840.9 1139.8,844.5 423.6,-56.1  "/><polygon points="483.6,-56.1 1139.8,769.1 1139.8,772.6 480.7,-56.1  "/><polygon points="540.7,-56.1 1139.8,697.2 1139.8,700.8 537.9,-56.1  "/><polygon points="597.8,-56.1 1139.8,625.4 1139.8,628.9 595,-56.1  "/><polygon points="655,-56.1 1139.8,553.5 1139.8,557.1 652.2,-56.1  "/><polygon points="712.1,-56.1 1139.8,481.7 1139.8,485.2 709.3,-56.1  "/><polygon points="769.3,-56.1 1139.8,409.8 1139.8,413.4 766.4,-56.1  "/><polygon points="826.4,-56.1 1139.8,338 1139.8,341.5 823.6,-56.1  "/><polygon points="883.6,-56.1 1139.8,266.1 1139.8,269.7 880.7,-56.1  "/><polygon points="940.7,-56.1 1139.8,194.3 1139.8,197.8 937.9,-56.1  "/><polygon points="997.8,-56.1 1139.8,122.4 1139.8,126 995,-56.1  "/><polygon points="1055,-56.1 1139.8,50.6 1139.8,54.1 1052.1,-56.1  "/><polygon points="1112.1,-56.1 1139.8,-21.3 1139.8,-17.7 1109.3,-56.1  "/></g></svg>